<svg width="48" height="48" viewBox="0 0 48 48" fill="none" xmlns="http://www.w3.org/2000/svg">
<g clip-path="url(#clip0)">
<path d="M42.5886 12.5253H37.519V7.45567C37.519 6.55931 37.1629 5.69966 36.5291 5.06583C35.8952 4.43201 35.0356 4.07593 34.1392 4.07593H13.8608C12.9644 4.07593 12.1047 4.43201 11.4709 5.06583C10.8371 5.69966 10.481 6.55931 10.481 7.45567V12.5253H5.41139C4.06684 12.5253 2.77736 13.0594 1.82662 14.0102C0.875886 14.9609 0.341766 16.2504 0.341766 17.5949V41.2531C0.341766 42.1495 0.697846 43.0092 1.33167 43.643C1.9655 44.2768 2.82515 44.6329 3.72151 44.6329H44.2785C45.1748 44.6329 46.0345 44.2768 46.6683 43.643C47.3021 43.0092 47.6582 42.1495 47.6582 41.2531V17.5949C47.6582 16.2504 47.1241 14.9609 46.1734 14.0102C45.2226 13.0594 43.9331 12.5253 42.5886 12.5253ZM13.8608 7.45567H34.1392V12.5253H13.8608V7.45567ZM44.2785 41.2531H3.72151V26.0443H17.2405V34.4936H30.7595V26.0443H44.2785V41.2531ZM20.6202 26.0443H27.3797V31.1139H20.6202V26.0443ZM3.72151 22.6645V17.5949C3.72151 17.1467 3.89955 16.7169 4.21647 16.4C4.53338 16.0831 4.9632 15.905 5.41139 15.905H42.5886C43.0368 15.905 43.4666 16.0831 43.7835 16.4C44.1004 16.7169 44.2785 17.1467 44.2785 17.5949V22.6645H3.72151Z" fill="#00A0C1"/>
</g>
<defs>
<clipPath id="clip0">
<rect width="48" height="40.7089" fill="white" transform="translate(0 4)"/>
</clipPath>
</defs>
</svg>
