<svg width="48" height="48" viewBox="0 0 48 48" fill="none" xmlns="http://www.w3.org/2000/svg">
<g clip-path="url(#clip0)">
<path d="M29.1419 13.6241H41.1398V17.0695H29.1419V13.6241Z" fill="white"/>
<path d="M29.1419 22.2375H41.1398V25.6829H29.1419V22.2375Z" fill="white"/>
<path d="M29.1419 30.8506H41.1398V34.2959H29.1419V30.8506Z" fill="white"/>
<path d="M44.5679 5.01111H3.43234C2.52347 5.01202 1.65208 5.3753 1.00941 6.02123C0.366737 6.66715 0.00528678 7.54295 0.00437927 8.45643V39.4643C0.00528678 40.3778 0.366737 41.2536 1.00941 41.8995C1.65208 42.5454 2.52347 42.9087 3.43234 42.9096H44.5679C45.4766 42.9082 46.3477 42.5448 46.9903 41.899C47.6329 41.2532 47.9945 40.3776 47.9958 39.4643V8.45643C47.9949 7.54295 47.6335 6.66715 46.9908 6.02123C46.3481 5.3753 45.4767 5.01202 44.5679 5.01111ZM3.43234 8.45643H22.2861V39.4643H3.43234V8.45643ZM25.7141 39.4643V8.45643H44.5679L44.5713 39.4643H25.7141Z" fill="white"/>
</g>
<defs>
<clipPath id="clip0">
<rect width="48" height="37.92" fill="white" transform="translate(0 5)"/>
</clipPath>
</defs>
</svg>
